<svg width="566" height="225" xmlns="http://www.w3.org/2000/svg" xmlns:xlink="http://www.w3.org/1999/xlink" overflow="hidden"><defs><clipPath id="clip0"><rect x="-4" y="-4" width="566" height="225"/></clipPath><clipPath id="clip1"><rect x="273" y="87" width="96" height="96"/></clipPath><clipPath id="clip2"><rect x="273" y="87" width="96" height="96"/></clipPath><clipPath id="clip3"><rect x="273" y="87" width="96" height="96"/></clipPath></defs><g clip-path="url(#clip0)" transform="translate(4 4)"><rect x="31" y="86" width="501" height="97" fill="#F2F2F2"/><text fill="#2E75B6" font-family="Calibri,Calibri_MSFontService,sans-serif" font-weight="700" font-size="72" transform="translate(40.354 158)">ACCESS<tspan fill="#44546A" font-size="72" x="352.287" y="0">IBLE</tspan></text><g clip-path="url(#clip1)"><g clip-path="url(#clip2)"><g clip-path="url(#clip3)"><path d="M288 142.619C287.998 139.747 289.162 136.997 291.226 135 288.334 130.196 289.885 123.957 294.689 121.065 294.933 120.919 295.182 120.783 295.437 120.657 294.112 116.211 296.642 111.533 301.088 110.208 301.163 110.185 301.24 110.163 301.316 110.143 301.644 105.265 305.865 101.577 310.743 101.906 315.388 102.218 318.997 106.077 319 110.733L319 159.89C319.001 163.559 316.027 166.534 312.358 166.534 309.454 166.535 306.887 164.649 306.018 161.878 300.77 163.032 295.581 159.713 294.427 154.465 294.275 153.774 294.199 153.069 294.2 152.362 294.2 152.332 294.2 152.303 294.2 152.274 290.423 150.545 288.001 146.773 288 142.619Z" fill="#00B050"/><path d="M349.29 108.243C348.185 108.243 347.29 107.348 347.289 106.244 347.289 105.713 347.5 105.204 347.875 104.829L352.117 100.586C352.898 99.8048 354.164 99.8046 354.945 100.586 355.727 101.366 355.727 102.633 354.946 103.414L350.7 107.657C350.326 108.032 349.819 108.243 349.29 108.243Z" fill="#00B050"/><path d="M356.192 121.668C355.087 121.669 354.191 120.775 354.19 119.67 354.189 118.865 354.671 118.138 355.413 117.825L361.683 115.174C362.69 114.721 363.874 115.17 364.328 116.177 364.781 117.185 364.331 118.369 363.324 118.822 363.297 118.834 363.269 118.846 363.241 118.857L356.97 121.509C356.724 121.613 356.459 121.667 356.192 121.668Z" fill="#00B050"/><path d="M365 136.533 359.462 136.533C358.357 136.533 357.462 135.638 357.462 134.533 357.462 133.428 358.357 132.533 359.462 132.533L365 132.533C366.105 132.533 367 133.428 367 134.533 367 135.638 366.105 136.533 365 136.533Z" fill="#00B050"/><path d="M363.994 154.688C363.708 154.688 363.425 154.626 363.165 154.507L357.855 152.082C356.85 151.623 356.408 150.436 356.867 149.431 357.326 148.426 358.513 147.984 359.518 148.443L364.827 150.868C365.832 151.326 366.276 152.512 365.818 153.517 365.492 154.232 364.779 154.689 363.994 154.688Z" fill="#00B050"/><path d="M354.154 169.686C353.624 169.686 353.115 169.475 352.74 169.1L348.5 164.857C347.706 164.09 347.684 162.824 348.451 162.029 349.218 161.234 350.484 161.212 351.279 161.98 351.296 161.996 351.312 162.012 351.328 162.029L355.571 166.271C356.353 167.052 356.353 168.318 355.573 169.099 355.197 169.475 354.688 169.686 354.157 169.686Z" fill="#00B050"/><path d="M354 142.619C354.003 139.747 352.839 136.997 350.775 135 353.666 130.196 352.116 123.957 347.311 121.065 347.068 120.919 346.818 120.783 346.563 120.657 347.888 116.211 345.359 111.533 340.913 110.207 340.837 110.185 340.761 110.163 340.685 110.143 340.365 105.265 336.151 101.57 331.272 101.89 326.615 102.195 322.995 106.065 323 110.733L323 159.89C323.001 163.559 325.977 166.533 329.646 166.532 332.548 166.531 335.114 164.647 335.983 161.878 341.23 163.032 346.419 159.713 347.573 154.466 347.725 153.775 347.801 153.07 347.8 152.362 347.8 152.332 347.8 152.303 347.8 152.274 351.577 150.545 353.999 146.773 354 142.619ZM336.7 142.935C336.7 142.935 328.629 136.763 328.629 131.778 328.629 128.455 333.709 124.894 336.7 130.829 339.691 124.894 344.77 128.455 344.77 131.778 344.774 136.763 336.7 142.935 336.7 142.935Z" fill="#00B050"/></g></g></g><text font-family="Calibri,Calibri_MSFontService,sans-serif" font-weight="700" font-size="72" transform="translate(69.5633 85)">make<tspan font-size="72" x="179.033" y="0">learning</tspan></text></g></svg>