<svg width="80" height="98" xmlns="http://www.w3.org/2000/svg" xmlns:xlink="http://www.w3.org/1999/xlink" overflow="hidden"><defs><clipPath id="clip0"><rect x="730" y="292" width="80" height="98"/></clipPath><clipPath id="clip1"><rect x="731" y="293" width="78" height="96"/></clipPath><clipPath id="clip2"><rect x="731" y="293" width="78" height="96"/></clipPath><clipPath id="clip3"><rect x="724" y="293" width="97" height="96"/></clipPath></defs><g clip-path="url(#clip0)" transform="translate(-730 -292)"><g clip-path="url(#clip1)"><g clip-path="url(#clip2)"><g clip-path="url(#clip3)"><path d="M30.8901 30.8901 19.9291 30.8901 19.9291 23.9149 30.8901 23.9149 30.8901 30.8901ZM45.837 23.9149 45.837 30.8901 34.8759 30.8901 34.8759 23.9149 45.837 23.9149ZM60.7838 23.9149 60.7838 30.8901 49.8228 30.8901 49.8228 23.9149 60.7838 23.9149ZM75.7306 23.9149 75.7306 30.8901 64.7696 30.8901 64.7696 23.9149 75.7306 23.9149ZM75.7306 41.8511 64.7696 41.8511 64.7696 34.8759 75.7306 34.8759 75.7306 41.8511ZM75.7306 50.321 64.7696 51.3175 64.7696 45.837 75.7306 45.837 75.7306 50.321ZM30.8901 45.837 30.8901 54.3068 19.9291 55.3033 19.9291 45.837 30.8901 45.837ZM30.8901 41.8511 19.9291 41.8511 19.9291 34.8759 30.8901 34.8759 30.8901 41.8511ZM45.837 41.8511 34.8759 41.8511 34.8759 34.8759 45.837 34.8759 45.837 41.8511ZM49.8228 41.8511 49.8228 34.8759 60.7838 34.8759 60.7838 41.8511 49.8228 41.8511ZM45.837 53.0114 34.8759 54.0079 34.8759 45.837 45.837 45.837 45.837 53.0114ZM49.8228 45.837 60.7838 45.837 60.7838 51.6164 49.8228 52.6129 49.8228 45.837ZM81.7094 55.8015 81.7094 17.9362 19.9291 17.9362 19.9291 16.9397C19.9291 11.9575 15.9433 7.97165 10.961 7.97165 9.26704 7.97165 7.97165 9.26704 7.97165 10.961 7.97165 12.655 9.26704 13.9504 10.961 13.9504 12.655 13.9504 13.9504 15.2458 13.9504 16.9397L13.9504 66.7625C13.9504 71.7448 17.9362 75.7306 22.9185 75.7306L25.9078 75.7306 69.7519 75.7306 78.72 75.7306C80.414 75.7306 81.7094 74.4352 81.7094 72.7413 81.7094 71.0473 80.414 69.7519 78.72 69.7519L22.9185 69.7519C21.2245 69.7519 19.9291 68.4565 19.9291 66.7625L19.9291 61.282 81.7094 55.8015Z" fill="#E7E6E6" transform="matrix(1 0 0 1.00356 724.868 293)"/><path d="M31.8866 81.7094C31.8866 85.0113 29.2098 87.6881 25.9078 87.6881 22.6059 87.6881 19.9291 85.0113 19.9291 81.7094 19.9291 78.4074 22.6059 75.7306 25.9078 75.7306 29.2098 75.7306 31.8866 78.4074 31.8866 81.7094Z" fill="#E7E6E6" transform="matrix(1 0 0 1.00356 724.868 293)"/><path d="M75.7306 81.7094C75.7306 85.0113 73.0539 87.6881 69.7519 87.6881 66.4499 87.6881 63.7732 85.0113 63.7732 81.7094 63.7732 78.4074 66.4499 75.7306 69.7519 75.7306 73.0539 75.7306 75.7306 78.4074 75.7306 81.7094Z" fill="#E7E6E6" transform="matrix(1 0 0 1.00356 724.868 293)"/></g></g></g></g></svg>